<svg width="794" height="488" viewBox="0 0 794 488" fill="none" xmlns="http://www.w3.org/2000/svg">
<g clip-path="url(#clip0_1_2)">
<mask id="mask0_1_2" style="mask-type:luminance" maskUnits="userSpaceOnUse" x="0" y="0" width="794" height="488">
<path d="M0 0V457.877L36.09 488L72.182 457.877L108.272 488L144.364 457.877L180.454 488L216.545 457.877L252.636 488L288.727 457.877L324.818 488L360.909 457.877L397 488L433.09 457.877L469.183 488L505.273 457.877L541.365 488L577.455 457.877L613.546 488L649.637 457.877L685.727 488L721.818 457.877L757.91 488L794 457.877V0H0Z" fill="white"/>
</mask>
<g mask="url(#mask0_1_2)">
<path d="M0 0H794V488H0" fill="white"/>
<path d="M33.083 66.272C33.083 42.172 51.129 24.099 75.189 24.099C99.25 24.099 117.295 42.173 117.295 66.272C117.295 90.37 99.25 108.444 75.189 108.444C51.129 108.444 33.083 90.37 33.083 66.272ZM114.288 135.556V120.494H39.098V135.556H114.288ZM114.288 491.012V174.716H39.098V494.025H114.288M700.765 15.062H778.962V33.136H700.765V15.062ZM628.583 15.062H694.75V33.136H628.583V15.062ZM556.402 15.062H622.568V33.136H556.402V15.062ZM487.227 15.062H526.326V33.136H487.227V15.062ZM532.341 15.062H550.386V33.136H532.341V15.062ZM463.167 15.062H481.212V33.136H463.167V15.062ZM775.955 48.197V60.247H499.258V48.197H775.955ZM778.962 45.185H496.25V63.26H778.962V45.185Z" fill="#EAECF0"/>
<path d="M505.273 51.21H511.288V57.235H505.273V51.21Z" fill="#EAECF0"/>
<path d="M0 0V488H794V0H0ZM3.008 3.012H790.992V456.47L757.909 484.081L721.818 453.958L685.727 484.081L649.636 453.958L613.545 484.081L577.455 453.958L541.364 484.081L505.273 453.958L469.182 484.081L433.091 453.958L397 484.081L360.909 453.958L324.818 484.081L288.727 453.958L252.636 484.081L216.545 453.958L180.455 484.081L144.364 453.958L108.273 484.081L72.182 453.958L36.091 484.081L3.008 456.467V3.012Z" fill="#EAECF0"/>
<path d="M207.149 145.31H272.604V157H207.149V145.31ZM498.793 145H564.245V156.69H498.793V145Z" fill="#EAECF0" stroke="#EAECF0" stroke-width="1.214" stroke-linecap="round"/>
<path d="M148.439 87.358H274.959V108.143H148.439V87.358Z" fill="#C8CCD1" stroke="#C8CCD1" stroke-width="2.158" stroke-linecap="round"/>
<path d="M617.089 176.5H154.306C150.547 176.5 147.5 180.306 147.5 185V199.582C147.5 204.276 150.547 208.082 154.306 208.082H617.089C620.848 208.082 623.895 204.276 623.895 199.582V185C623.895 180.306 620.848 176.5 617.089 176.5Z" fill="#F9F9F9" stroke="#E6E6E6" stroke-width="3"/>
<path d="M617.089 395.5H154.306C150.547 395.5 147.5 399.306 147.5 404V418.582C147.5 423.276 150.547 427.082 154.306 427.082H617.089C620.848 427.082 623.895 423.276 623.895 418.582V404C623.895 399.306 620.848 395.5 617.089 395.5Z" fill="#F9F9F9" stroke="#E6E6E6" stroke-width="3"/>
<path d="M149 179H152V206H149V179ZM149 398H152V425H149V398Z" fill="#E6E6E6"/>
<path d="M155.746 199.874H171.348V194.124H155.746V199.874ZM333.474 189.336H349.076V183.586H333.474V189.336ZM352.467 189.336H376.887V183.586H352.467V189.336ZM484.068 189.336H554.481V183.586H484.068V189.336ZM380.279 189.336H480.674V183.586H380.279V189.336ZM411.488 199.874H428.447V194.124H411.488V199.874ZM431.838 199.874H448.797V194.124H431.838V199.874ZM452.188 199.874H463.72V194.124H452.188V199.874ZM467.114 199.874H488.82V194.124H467.114V199.874ZM492.209 199.874H511.202V194.124H492.209V199.874ZM338.227 199.874H408.096V194.124H338.227V199.874ZM557.775 189.336H574.734V183.586H557.775V189.336ZM578.125 189.336H595.084V183.586H578.125V189.336ZM598.475 189.336H610.007V183.586H598.475V189.336ZM229.007 189.336H245.966V183.586H229.007V189.336ZM249.357 189.336H266.316V183.586H249.357V189.336ZM269.708 189.336H281.24V183.586H269.708V189.336ZM284.633 189.336H306.34V183.586H284.633V189.336ZM309.728 189.336H328.721V183.586H309.728V189.336ZM174.739 199.874H199.159V194.124H174.739V199.874ZM306.341 199.874H333.475V194.124H306.341V199.874ZM202.552 199.874H302.947V194.124H202.552V199.874ZM155.746 189.336H225.615V183.586H155.746V189.336ZM155.746 418.874H171.348V413.124H155.746V418.874ZM333.474 408.336H349.076V402.586H333.474V408.336ZM352.467 408.336H376.887V402.586H352.467V408.336ZM484.068 408.336H554.481V402.586H484.068V408.336ZM380.279 408.336H480.674V402.586H380.279V408.336ZM411.488 418.874H428.447V413.124H411.488V418.874ZM431.838 418.874H448.797V413.124H431.838V418.874ZM452.188 418.874H463.72V413.124H452.188V418.874ZM467.114 418.874H488.82V413.124H467.114V418.874ZM492.209 418.874H511.202V413.124H492.209V418.874ZM338.227 418.874H408.096V413.124H338.227V418.874ZM557.775 408.336H574.734V402.586H557.775V408.336ZM578.125 408.336H595.084V402.586H578.125V408.336ZM598.475 408.336H610.007V402.586H598.475V408.336ZM229.007 408.336H245.966V402.586H229.007V408.336ZM249.357 408.336H266.316V402.586H249.357V408.336ZM269.708 408.336H281.24V402.586H269.708V408.336ZM284.633 408.336H306.34V402.586H284.633V408.336ZM309.728 408.336H328.721V402.586H309.728V408.336ZM174.739 418.874H199.159V413.124H174.739V418.874ZM306.341 418.874H333.475V413.124H306.341V418.874ZM202.552 418.874H302.947V413.124H202.552V418.874ZM155.746 408.336H225.615V402.586H155.746V408.336ZM233.924 336.49H246.356V330.49H233.924V336.49ZM277.436 336.49H453.018V330.49H277.436V336.49ZM277.436 310.49H450.946V304.49H277.436V310.49ZM289.177 323.49H462.687V317.49H289.177V323.49ZM155.882 336.49H199.393V330.49H155.882V336.49ZM155.882 310.49H199.393V304.49H155.882V310.49ZM261.551 323.49H285.723V317.49H261.551V323.49ZM202.846 336.49H230.472V330.49H202.846V336.49ZM249.81 336.49H273.982V330.49H249.81V336.49ZM155.882 323.49H258.098V317.49H155.882V323.49ZM202.846 310.49H273.982V304.49H202.846V310.49ZM155.881 297.49H171.767V291.49H155.881V297.49ZM233.925 258.49H246.357V252.49H233.925V258.49ZM155.881 232.49H171.767V226.49H155.881V232.49ZM230.472 284.49H247.738V278.49H230.472V284.49ZM251.192 284.49H268.459V278.49H251.192V284.49ZM271.91 284.49H283.651V278.49H271.91V284.49ZM287.105 284.49H439.206V278.49H287.105V284.49ZM230.472 271.49H346.055V265.49H230.472V271.49ZM277.436 258.49H453.019V252.49H277.436V258.49ZM183.508 271.49H227.019V265.49H183.508V271.49ZM277.436 232.49H450.947V226.49H277.436V232.49ZM289.177 245.49H462.688V239.49H289.177V245.49ZM155.881 258.49H199.392V252.49H155.881V258.49ZM155.881 271.49H180.054V265.49H155.881V271.49ZM175.221 232.49H199.393V226.49H175.221V232.49ZM261.551 245.49H285.723V239.49H261.551V245.49ZM202.846 258.49H230.472V252.49H202.846V258.49ZM249.81 258.49H273.982V252.49H249.81V258.49ZM442.659 284.49H461.998V278.49H442.659V284.49ZM175.221 297.49H200.084V291.49H175.221V297.49ZM439.206 297.49H466.832V291.49H439.206V297.49ZM203.536 297.49H435.752V291.49H203.536V297.49ZM155.881 245.49H258.097V239.49H155.881V245.49ZM155.881 284.49H227.018V278.49H155.881V284.49ZM202.846 232.49H273.982V226.49H202.846V232.49ZM155.882 375.49H171.767V369.49H155.882V375.49ZM230.473 362.49H247.739V356.49H230.473V362.49ZM251.192 362.49H268.459V356.49H251.192V362.49ZM271.91 362.49H283.651V356.49H271.91V362.49ZM287.106 362.49H439.207V356.49H287.106V362.49ZM442.659 362.49H461.998V356.49H442.659V362.49ZM175.221 375.49H200.084V369.49H175.221V375.49ZM439.207 375.49H466.833V369.49H439.207V375.49ZM203.536 375.49H435.752V369.49H203.536V375.49ZM155.882 362.49H227.019V356.49H155.882V362.49Z" fill="#C4C4C4"/>
</g>
<rect x="494.601" y="219.653" width="127.794" height="164.662" rx="10.5" fill="#F9F9F9" stroke="#E6E6E6" stroke-width="3"/>
<rect x="643.759" y="176.277" width="127.794" height="177.836" rx="10.5" fill="#F9F9F9" stroke="#3366CC" stroke-width="3"/>
<rect x="509.935" y="231.024" width="95.2935" height="53.1425" fill="#EAECF0"/>
<rect x="509.935" y="303.217" width="95.2935" height="6" fill="#C4C4C4"/>
<rect x="509.935" y="315.291" width="48.6688" height="6" fill="#C4C4C4"/>
<rect x="509.935" y="327.365" width="90.0335" height="6" fill="#C4C4C4"/>
<rect x="652.173" y="185.127" width="90.0335" height="6" fill="#C4C4C4"/>
<rect x="666.154" y="203.504" width="39.7679" height="6" fill="#C4C4C4"/>
<rect x="666.154" y="218.562" width="39.7679" height="6" fill="#C4C4C4"/>
<rect x="666.154" y="270.29" width="39.7679" height="6" fill="#C4C4C4"/>
<rect x="666.154" y="322.805" width="39.7679" height="6" fill="#C4C4C4"/>
<rect x="666.154" y="233.939" width="39.7679" height="6" fill="#C4C4C4"/>
<rect x="666.154" y="285.667" width="39.7679" height="6" fill="#C4C4C4"/>
<rect x="666.154" y="338.181" width="39.7679" height="6" fill="#C4C4C4"/>
<rect x="652.173" y="256.815" width="77.7332" height="6" fill="#C4C4C4"/>
<rect x="652.173" y="309.143" width="105.559" height="6" fill="#C4C4C4"/>
<rect x="509.935" y="339.439" width="33.7322" height="6" fill="#C4C4C4"/>
<rect x="509.935" y="351.513" width="48.6688" height="6" fill="#C4C4C4"/>
<rect x="509.935" y="363.587" width="33.7322" height="6" fill="#C4C4C4"/>
<rect x="549.744" y="363.587" width="33.7322" height="6" fill="#C4C4C4"/>
<circle cx="657.819" cy="206.504" r="4.5" fill="#D9D9D9"/>
<circle cx="657.819" cy="221.562" r="4.5" fill="#D9D9D9"/>
<circle cx="657.819" cy="273.29" r="4.5" fill="#D9D9D9"/>
<circle cx="657.819" cy="325.805" r="4.5" fill="#D9D9D9"/>
<circle cx="657.819" cy="236.939" r="4.5" fill="#D9D9D9"/>
<circle cx="657.819" cy="288.667" r="4.5" fill="#D9D9D9"/>
<circle cx="657.819" cy="341.181" r="4.5" fill="#D9D9D9"/>
<circle cx="657.819" cy="206.504" r="3" fill="#C4C4C4"/>
<circle cx="657.819" cy="273.29" r="3" fill="#C4C4C4"/>
<circle cx="657.819" cy="325.805" r="3" fill="#C4C4C4"/>
</g>
<defs>
<clipPath id="clip0_1_2">
<rect width="794" height="488" fill="white"/>
</clipPath>
</defs>
</svg>
