<svg width="794" height="488" viewBox="0 0 794 488" fill="none" xmlns="http://www.w3.org/2000/svg">
<g clip-path="url(#clip0_4_65)">
<mask id="mask0_4_65" style="mask-type:luminance" maskUnits="userSpaceOnUse" x="0" y="0" width="794" height="488">
<path d="M794 0V457.877L757.91 488L721.818 457.877L685.728 488L649.636 457.877L613.546 488L577.455 457.877L541.364 488L505.273 457.877L469.182 488L433.091 457.877L397 488L360.91 457.877L324.817 488L288.727 457.877L252.635 488L216.545 457.877L180.454 488L144.363 457.877L108.273 488L72.182 457.877L36.09 488L0 457.877V0H794Z" fill="white"/>
</mask>
<g mask="url(#mask0_4_65)">
<path d="M794 0H0V488H794" fill="white"/>
<path d="M760.917 66.272C760.917 42.172 742.871 24.099 718.811 24.099C694.75 24.099 676.705 42.173 676.705 66.272C676.705 90.37 694.75 108.444 718.811 108.444C742.871 108.444 760.917 90.37 760.917 66.272ZM679.712 135.556V120.494H754.902V135.556H679.712ZM679.712 491.012V174.716H754.902V494.025H679.712M93.235 15.062H15.038V33.136H93.235V15.062ZM165.417 15.062H99.25V33.136H165.417V15.062ZM237.598 15.062H171.432V33.136H237.598V15.062ZM306.773 15.062H267.674V33.136H306.773V15.062ZM261.659 15.062H243.614V33.136H261.659V15.062ZM330.833 15.062H312.788V33.136H330.833V15.062ZM18.045 48.197V60.247H294.742V48.197H18.045ZM15.038 45.185H297.75V63.26H15.038V45.185Z" fill="#EAECF0"/>
<path d="M288.727 51.21H282.712V57.235H288.727V51.21Z" fill="#EAECF0"/>
<path d="M794 0V488H0V0H794ZM790.992 3.012H3.008V456.47L36.091 484.081L72.182 453.958L108.273 484.081L144.364 453.958L180.455 484.081L216.545 453.958L252.636 484.081L288.727 453.958L324.818 484.081L360.909 453.958L397 484.081L433.091 453.958L469.182 484.081L505.273 453.958L541.364 484.081L577.455 453.958L613.545 484.081L649.636 453.958L685.727 484.081L721.818 453.958L757.909 484.081L790.992 456.467V3.012Z" fill="#EAECF0"/>
<path d="M586.851 145.31H521.396V157H586.851V145.31ZM295.207 145H229.755V156.69H295.207V145Z" fill="#EAECF0" stroke="#EAECF0" stroke-width="1.214" stroke-linecap="round"/>
<path d="M645.561 87.358H519.041V108.143H645.561V87.358Z" fill="#C8CCD1" stroke="#C8CCD1" stroke-width="2.158" stroke-linecap="round"/>
<path d="M176.911 176.5H639.694C643.453 176.5 646.5 180.306 646.5 185V199.582C646.5 204.276 643.453 208.082 639.694 208.082H176.911C173.152 208.082 170.105 204.276 170.105 199.582V185C170.105 180.306 173.152 176.5 176.911 176.5Z" fill="#F9F9F9" stroke="#E6E6E6" stroke-width="3"/>
<path d="M176.911 395.5H639.694C643.453 395.5 646.5 399.306 646.5 404V418.582C646.5 423.276 643.453 427.082 639.694 427.082H176.911C173.152 427.082 170.105 423.276 170.105 418.582V404C170.105 399.306 173.152 395.5 176.911 395.5Z" fill="#F9F9F9" stroke="#E6E6E6" stroke-width="3"/>
<path d="M645 179H642V206H645V179ZM645 398H642V425H645V398Z" fill="#E6E6E6"/>
<path d="M638.254 199.874H622.652V194.124H638.254V199.874ZM460.526 189.336H444.924V183.586H460.526V189.336ZM441.533 189.336H417.113V183.586H441.533V189.336ZM309.931 189.336H239.519V183.586H309.931V189.336ZM413.721 189.336H313.325V183.586H413.721V189.336ZM382.512 199.874H365.553V194.124H382.512V199.874ZM362.162 199.874H345.203V194.124H362.162V199.874ZM341.811 199.874H330.28V194.124H341.811V199.874ZM326.886 199.874H305.18V194.124H326.886V199.874ZM301.791 199.874H282.798V194.124H301.791V199.874ZM455.773 199.874H385.904V194.124H455.773V199.874ZM236.225 189.336H219.266V183.586H236.225V189.336ZM215.875 189.336H198.916V183.586H215.875V189.336ZM195.525 189.336H183.993V183.586H195.525V189.336ZM564.993 189.336H548.034V183.586H564.993V189.336ZM544.643 189.336H527.684V183.586H544.643V189.336ZM524.292 189.336H512.76V183.586H524.292V189.336ZM509.367 189.336H487.66V183.586H509.367V189.336ZM484.272 189.336H465.279V183.586H484.272V189.336ZM619.261 199.874H594.841V194.124H619.261V199.874ZM487.659 199.874H460.525V194.124H487.659V199.874ZM591.448 199.874H491.053V194.124H591.448V199.874ZM638.254 189.336H568.385V183.586H638.254V189.336ZM638.254 418.874H622.652V413.124H638.254V418.874ZM460.526 408.336H444.924V402.586H460.526V408.336ZM441.533 408.336H417.113V402.586H441.533V408.336ZM309.931 408.336H239.519V402.586H309.931V408.336ZM413.721 408.336H313.325V402.586H413.721V408.336ZM382.512 418.874H365.553V413.124H382.512V418.874ZM362.162 418.874H345.203V413.124H362.162V418.874ZM341.811 418.874H330.28V413.124H341.811V418.874ZM326.886 418.874H305.18V413.124H326.886V418.874ZM301.791 418.874H282.798V413.124H301.791V418.874ZM455.773 418.874H385.904V413.124H455.773V418.874ZM236.225 408.336H219.266V402.586H236.225V408.336ZM215.875 408.336H198.916V402.586H215.875V408.336ZM195.525 408.336H183.993V402.586H195.525V408.336ZM564.993 408.336H548.034V402.586H564.993V408.336ZM544.643 408.336H527.684V402.586H544.643V408.336ZM524.292 408.336H512.76V402.586H524.292V408.336ZM509.367 408.336H487.66V402.586H509.367V408.336ZM484.272 408.336H465.279V402.586H484.272V408.336ZM619.261 418.874H594.841V413.124H619.261V418.874ZM487.659 418.874H460.525V413.124H487.659V418.874ZM591.448 418.874H491.053V413.124H591.448V418.874ZM638.254 408.336H568.385V402.586H638.254V408.336ZM560.076 336.49H547.644V330.49H560.076V336.49ZM516.564 336.49H340.982V330.49H516.564V336.49ZM516.564 310.49H343.054V304.49H516.564V310.49ZM504.823 323.49H331.313V317.49H504.823V323.49ZM638.118 336.49H594.607V330.49H638.118V336.49ZM638.118 310.49H594.607V304.49H638.118V310.49ZM532.449 323.49H508.277V317.49H532.449V323.49ZM591.154 336.49H563.528V330.49H591.154V336.49ZM544.19 336.49H520.018V330.49H544.19V336.49ZM638.118 323.49H535.902V317.49H638.118V323.49ZM591.154 310.49H520.018V304.49H591.154V310.49ZM638.119 297.49H622.233V291.49H638.119V297.49ZM560.075 258.49H547.643V252.49H560.075V258.49ZM638.119 232.49H622.233V226.49H638.119V232.49ZM563.528 284.49H546.262V278.49H563.528V284.49ZM542.808 284.49H525.541V278.49H542.808V284.49ZM522.09 284.49H510.349V278.49H522.09V284.49ZM506.895 284.49H354.794V278.49H506.895V284.49ZM563.528 271.49H447.945V265.49H563.528V271.49ZM516.563 258.49H340.981V252.49H516.563V258.49ZM610.492 271.49H566.981V265.49H610.492V271.49ZM516.563 232.49H343.053V226.49H516.563V232.49ZM504.823 245.49H331.312V239.49H504.823V245.49ZM638.119 258.49H594.608V252.49H638.119V258.49ZM638.119 271.49H613.946V265.49H638.119V271.49ZM618.779 232.49H594.607V226.49H618.779V232.49ZM532.449 245.49H508.277V239.49H532.449V245.49ZM591.154 258.49H563.528V252.49H591.154V258.49ZM544.19 258.49H520.018V252.49H544.19V258.49ZM351.341 284.49H332.002V278.49H351.341V284.49ZM618.779 297.49H593.916V291.49H618.779V297.49ZM354.794 297.49H327.168V291.49H354.794V297.49ZM590.464 297.49H358.248V291.49H590.464V297.49ZM638.119 245.49H535.903V239.49H638.119V245.49ZM638.119 284.49H566.982V278.49H638.119V284.49ZM591.154 232.49H520.018V226.49H591.154V232.49ZM638.118 375.49H622.233V369.49H638.118V375.49ZM563.527 362.49H546.261V356.49H563.527V362.49ZM542.808 362.49H525.541V356.49H542.808V362.49ZM522.09 362.49H510.349V356.49H522.09V362.49ZM506.894 362.49H354.793V356.49H506.894V362.49ZM351.341 362.49H332.002V356.49H351.341V362.49ZM618.779 375.49H593.916V369.49H618.779V375.49ZM354.793 375.49H327.167V369.49H354.793V375.49ZM590.464 375.49H358.248V369.49H590.464V375.49ZM638.118 362.49H566.981V356.49H638.118V362.49Z" fill="#C4C4C4"/>
</g>
<rect x="-1.5" y="1.5" width="127.794" height="164.662" rx="10.5" transform="matrix(-1 0 0 1 297.899 218.153)" fill="#F9F9F9" stroke="#E6E6E6" stroke-width="3"/>
<rect x="-1.5" y="1.5" width="127.794" height="177.836" rx="10.5" transform="matrix(-1 0 0 1 148.741 174.777)" fill="#F9F9F9" stroke="#3366CC" stroke-width="3"/>
<rect width="95.2935" height="53.1425" transform="matrix(-1 0 0 1 284.065 231.024)" fill="#EAECF0"/>
<rect width="95.2935" height="6" transform="matrix(-1 0 0 1 284.065 303.217)" fill="#C4C4C4"/>
<rect width="48.6688" height="6" transform="matrix(-1 0 0 1 284.065 315.291)" fill="#C4C4C4"/>
<rect width="90.0335" height="6" transform="matrix(-1 0 0 1 284.065 327.365)" fill="#C4C4C4"/>
<rect width="90.0335" height="6" transform="matrix(-1 0 0 1 141.827 185.127)" fill="#C4C4C4"/>
<rect width="39.7679" height="6" transform="matrix(-1 0 0 1 127.846 203.504)" fill="#C4C4C4"/>
<rect width="39.7679" height="6" transform="matrix(-1 0 0 1 127.846 218.562)" fill="#C4C4C4"/>
<rect width="39.7679" height="6" transform="matrix(-1 0 0 1 127.846 270.29)" fill="#C4C4C4"/>
<rect width="39.7679" height="6" transform="matrix(-1 0 0 1 127.846 322.805)" fill="#C4C4C4"/>
<rect width="39.7679" height="6" transform="matrix(-1 0 0 1 127.846 233.939)" fill="#C4C4C4"/>
<rect width="39.7679" height="6" transform="matrix(-1 0 0 1 127.846 285.667)" fill="#C4C4C4"/>
<rect width="39.7679" height="6" transform="matrix(-1 0 0 1 127.846 338.181)" fill="#C4C4C4"/>
<rect width="77.7332" height="6" transform="matrix(-1 0 0 1 141.827 256.815)" fill="#C4C4C4"/>
<rect width="105.559" height="6" transform="matrix(-1 0 0 1 141.827 309.143)" fill="#C4C4C4"/>
<rect width="33.7322" height="6" transform="matrix(-1 0 0 1 284.065 339.439)" fill="#C4C4C4"/>
<rect width="48.6688" height="6" transform="matrix(-1 0 0 1 284.065 351.513)" fill="#C4C4C4"/>
<rect width="33.7322" height="6" transform="matrix(-1 0 0 1 284.065 363.587)" fill="#C4C4C4"/>
<rect width="33.7322" height="6" transform="matrix(-1 0 0 1 244.256 363.587)" fill="#C4C4C4"/>
<circle cx="4.5" cy="4.5" r="4.5" transform="matrix(-1 0 0 1 140.681 202.004)" fill="#D9D9D9"/>
<circle cx="4.5" cy="4.5" r="4.5" transform="matrix(-1 0 0 1 140.681 217.062)" fill="#D9D9D9"/>
<circle cx="4.5" cy="4.5" r="4.5" transform="matrix(-1 0 0 1 140.681 268.79)" fill="#D9D9D9"/>
<circle cx="4.5" cy="4.5" r="4.5" transform="matrix(-1 0 0 1 140.681 321.305)" fill="#D9D9D9"/>
<circle cx="4.5" cy="4.5" r="4.5" transform="matrix(-1 0 0 1 140.681 232.439)" fill="#D9D9D9"/>
<circle cx="4.5" cy="4.5" r="4.5" transform="matrix(-1 0 0 1 140.681 284.167)" fill="#D9D9D9"/>
<circle cx="4.5" cy="4.5" r="4.5" transform="matrix(-1 0 0 1 140.681 336.681)" fill="#D9D9D9"/>
<circle cx="3" cy="3" r="3" transform="matrix(-1 0 0 1 139.181 203.504)" fill="#C4C4C4"/>
<circle cx="3" cy="3" r="3" transform="matrix(-1 0 0 1 139.181 270.29)" fill="#C4C4C4"/>
<circle cx="3" cy="3" r="3" transform="matrix(-1 0 0 1 139.181 322.805)" fill="#C4C4C4"/>
</g>
<defs>
<clipPath id="clip0_4_65">
<rect width="794" height="488" fill="white" transform="matrix(-1 0 0 1 794 0)"/>
</clipPath>
</defs>
</svg>
