<?xml version="1.0" encoding="UTF-8" standalone="no"?>
<!-- Created with Inkscape (http://www.inkscape.org/) -->

<svg
   xmlns:dc="http://purl.org/dc/elements/1.1/"
   xmlns:cc="http://creativecommons.org/ns#"
   xmlns:rdf="http://www.w3.org/1999/02/22-rdf-syntax-ns#"
   xmlns:svg="http://www.w3.org/2000/svg"
   xmlns="http://www.w3.org/2000/svg"
   version="1.1"
   width="16"
   height="16"
   viewBox="0 0 16 16"
   id="Layer_1"
   xml:space="preserve"><metadata
     id="metadata9"><rdf:RDF><cc:Work
         rdf:about=""><dc:format>image/svg+xml</dc:format><dc:type
           rdf:resource="http://purl.org/dc/dcmitype/StillImage" /><dc:title></dc:title></cc:Work></rdf:RDF></metadata><defs
     id="defs7" /><path
     d="m 7.999493,3.57443 1.2092315,2.44992 0.3276693,0.66396 0.7329442,0.10601 2.703526,0.3931 -1.956379,1.90718 -0.530053,0.51636 0.124778,0.73091 0.461577,2.69287 L 8.6543243,11.76363 7.9989857,11.4177 7.3436471,11.76363 4.925184,13.03474 5.3867615,10.34035 5.5115396,9.61096 4.9819935,9.0946 3.0266295,7.18691 5.7291404,6.79483 6.4620849,6.6878 6.7897542,6.02536 7.999493,3.57443 m 0,-3.18285 L 5.5272636,5.40147 0,6.20492 3.9994929,10.10246 3.0550343,15.60842 7.9989857,13.00888 12.943444,15.60842 12.000508,10.10246 16,6.2039 10.471722,5.40096 7.999493,0.39158 l 0,0 z"
     id="path3"
     style="fill:#6d6e70" /></svg>